<svg width="53" height="52" viewBox="0 0 53 52" fill="none" xmlns="http://www.w3.org/2000/svg">
<g clip-path="url(#clip0_7_793)">
<path d="M47.1581 27.0166V37.1628C47.1581 38.6443 46.4403 39.3792 44.9646 39.3792C39.6303 39.3792 34.296 39.3792 28.9616 39.3792C28.8135 39.3941 28.6642 39.3649 28.5325 39.2955C28.4007 39.226 28.2924 39.1194 28.2209 38.9888C26.9847 37.0011 25.0588 35.5393 22.8119 34.8831C22.6676 34.8564 22.5391 34.7755 22.4526 34.657C22.3661 34.5385 22.3282 34.3914 22.3468 34.2458C22.3468 28.389 22.3468 22.5321 22.3468 16.6752C22.3208 16.3997 22.3554 16.1219 22.4482 15.8613C22.541 15.6006 22.6898 15.3634 22.8841 15.1664C23.0783 14.9694 23.3134 14.8173 23.5728 14.7209C23.8321 14.6244 24.1094 14.586 24.3852 14.6082C26.8428 14.6082 29.2947 14.6082 31.7523 14.6082C32.2231 14.6082 32.3265 14.7517 32.3265 15.1824C32.3265 16.6293 32.3265 18.0533 32.3265 19.529C32.3157 20.1829 32.5648 20.8144 33.0191 21.2848C33.4734 21.7552 34.0957 22.0262 34.7496 22.0383C35.0782 22.0391 35.4037 21.9742 35.707 21.8476C36.0102 21.721 36.2852 21.5353 36.5157 21.3011C36.7462 21.0668 36.9276 20.7889 37.0493 20.4836C37.171 20.1784 37.2305 19.8518 37.2244 19.5232C37.2244 18.0533 37.2244 16.5833 37.2244 15.1134C37.2244 14.7057 37.3278 14.6024 37.7354 14.6082C40.2102 14.6082 42.6793 14.6082 45.1541 14.6082C45.4255 14.5867 45.6983 14.6242 45.9539 14.7181C46.2094 14.8119 46.4417 14.9598 46.6347 15.1518C46.8278 15.3438 46.9771 15.5751 47.0724 15.8302C47.1676 16.0852 47.2067 16.3578 47.1868 16.6294C47.1715 20.0937 47.1619 23.5561 47.1581 27.0166Z" fill="#003569"/>
<path d="M20.5282 50.6961C24.3905 50.6961 27.5216 47.5651 27.5216 43.7027C27.5216 39.8403 24.3905 36.7092 20.5282 36.7092C16.6658 36.7092 13.5347 39.8403 13.5347 43.7027C13.5347 47.5651 16.6658 50.6961 20.5282 50.6961Z" fill="#003569"/>
<path d="M50.3915 50.0938C50.177 50.0982 49.9639 50.0577 49.7661 49.9746C49.5683 49.8915 49.3901 49.7678 49.2431 49.6115L44.259 44.3059C44.2462 44.2911 44.2303 44.2792 44.2125 44.2713C44.1946 44.2633 44.1752 44.2594 44.1556 44.2599H21.7617C21.0246 44.258 20.3105 44.0024 19.7396 43.536C19.1686 43.0696 18.7756 42.421 18.6266 41.699L10.8577 3.97396C10.8513 3.94142 10.8344 3.91183 10.8094 3.88999C10.7845 3.86816 10.7529 3.85535 10.7198 3.8534L2.10679 3.55481C1.70214 3.53983 1.31985 3.36533 1.04337 3.06948C0.766891 2.77364 0.618682 2.38049 0.631092 1.97575C0.643065 1.57921 0.809428 1.20296 1.09474 0.927301C1.38005 0.651642 1.76174 0.498336 2.15846 0.500014L10.8347 0.79861C11.5539 0.821995 12.2441 1.08768 12.7934 1.55253C13.3426 2.01738 13.7187 2.6541 13.8607 3.35953L21.6239 41.0846C21.6316 41.117 21.6499 41.1459 21.6759 41.1667C21.702 41.1875 21.7342 41.199 21.7675 41.1994H44.1614C44.5989 41.2019 45.0314 41.2926 45.433 41.4663C45.8345 41.64 46.1969 41.8929 46.4984 42.21L51.4825 47.5156C51.7585 47.813 51.9069 48.2068 51.8959 48.6124C51.8904 48.8135 51.8449 49.0115 51.7621 49.1949C51.6793 49.3783 51.5608 49.5433 51.4135 49.6804C51.1356 49.9397 50.7715 50.0869 50.3915 50.0938Z" fill="#003569"/>
</g>
<defs>
<clipPath id="clip0_7_793">
<rect width="52" height="51" fill="white" transform="translate(0.630371 0.5)"/>
</clipPath>
</defs>
</svg>
