<svg width="51" height="48" viewBox="0 0 51 48" fill="none" xmlns="http://www.w3.org/2000/svg">
<g clip-path="url(#clip0_7_823)">
<path d="M28.4848 46.4248C29.022 46.1132 31.7726 44.4048 32.9437 43.2283C32.9437 43.2283 30.4779 36.0886 32.9437 32.328C35.4096 28.5674 44.4134 25.8545 46.5032 19.1929C46.5096 19.1712 46.5217 19.1516 46.5384 19.1363C46.555 19.1211 46.5755 19.1106 46.5977 19.1062C46.6198 19.1017 46.6428 19.1034 46.664 19.1111C46.6853 19.1188 46.704 19.1322 46.7182 19.1498C47.5885 20.3693 51.9723 27.2405 48.6093 38.0388C45.5686 47.7894 36.7903 45.9628 35.0336 45.49C35.0026 45.4825 34.9741 45.4669 34.9513 45.4446C34.9285 45.4224 34.9121 45.3944 34.9038 45.3636C34.8956 45.3328 34.8959 45.3003 34.9045 45.2697C34.9131 45.239 34.9298 45.2111 34.9529 45.1891C36.065 44.1147 41.0344 39.0594 42.5924 34.6166C42.5924 34.6166 35.4687 44.0234 28.6674 47.6765C28.6398 47.6901 28.6092 47.6965 28.5784 47.695C28.5476 47.6936 28.5177 47.6845 28.4914 47.6684C28.4652 47.6523 28.4434 47.6299 28.4282 47.6031C28.4129 47.5763 28.4046 47.5462 28.4042 47.5154V46.5967C28.3985 46.5633 28.4032 46.5289 28.4176 46.4982C28.432 46.4675 28.4554 46.4418 28.4848 46.4248Z" fill="#003569"/>
<path d="M5.53509 18.0001C5.57807 18.6018 5.84132 21.8467 6.35706 23.4262C6.35706 23.4262 13.8352 24.4684 16.07 28.374C18.3049 32.2796 16.6072 41.5306 21.6195 46.4139C21.6371 46.4292 21.65 46.4492 21.6568 46.4715C21.6635 46.4938 21.6639 46.5175 21.6577 46.54C21.6515 46.5624 21.6391 46.5827 21.6219 46.5985C21.6047 46.6142 21.5834 46.6248 21.5605 46.6289C20.0777 46.8492 11.971 47.6388 3.87508 39.7363C-3.43655 32.6073 2.18281 25.6018 3.39156 24.2588C3.41302 24.2357 3.44004 24.2187 3.47006 24.2092C3.50008 24.1997 3.53204 24.198 3.56286 24.2045C3.59367 24.211 3.62231 24.2254 3.64595 24.2462C3.66958 24.267 3.68741 24.2936 3.69775 24.3233C4.16514 25.806 6.38392 32.5267 9.65025 35.9327C9.65025 35.9327 4.50363 25.3118 4.33709 17.5918C4.33652 17.5612 4.34387 17.531 4.35847 17.5041C4.37306 17.4772 4.3944 17.4545 4.42037 17.4383C4.44634 17.422 4.47608 17.4128 4.50667 17.4115C4.53727 17.4102 4.56767 17.4167 4.59494 17.4307L5.43836 17.8605C5.46488 17.8738 5.48763 17.8935 5.50453 17.9179C5.52142 17.9423 5.53195 17.9706 5.53509 18.0001Z" fill="#003569"/>
<path d="M42.5166 12.0908C41.9794 11.8597 38.9494 10.6295 37.3055 10.3717C37.3055 10.3717 33.0077 16.5658 28.495 16.7915C23.9823 17.0171 16.5095 11.3333 9.89632 13.5681C9.87536 13.5777 9.85207 13.5809 9.8293 13.5774C9.80653 13.5739 9.7853 13.5639 9.76818 13.5484C9.75105 13.533 9.73876 13.513 9.73289 13.4907C9.72703 13.4685 9.72781 13.4449 9.73512 13.4231C10.2078 11.9994 13.1787 4.41377 23.8856 0.771382C33.5557 -2.51643 37.2571 5.6655 37.9071 7.35239C37.9177 7.38208 37.9205 7.41397 37.915 7.44499C37.9096 7.47601 37.8962 7.50513 37.8762 7.52946C37.8562 7.55378 37.8302 7.57255 37.8008 7.58389C37.7714 7.59522 37.7396 7.59871 37.7084 7.59412C36.172 7.34162 29.1719 6.29408 24.6646 7.64251C24.6646 7.64251 36.4835 7.86272 43.4245 11.2096C43.45 11.2262 43.4709 11.249 43.4854 11.2757C43.4999 11.3025 43.5076 11.3324 43.5076 11.3628C43.5076 11.3932 43.4999 11.4232 43.4854 11.4499C43.4709 11.4767 43.45 11.4993 43.4245 11.5159L42.6616 12.0531C42.6426 12.0711 42.6193 12.0839 42.594 12.0905C42.5686 12.0971 42.542 12.0972 42.5166 12.0908Z" fill="#003569"/>
</g>
<defs>
<clipPath id="clip0_7_823">
<rect width="50" height="48" fill="white" transform="translate(0.189941)"/>
</clipPath>
</defs>
</svg>
