<svg width="47" height="38" viewBox="0 0 47 38" fill="none" xmlns="http://www.w3.org/2000/svg">
<g clip-path="url(#clip0_7_763)">
<path d="M30.6539 36.2738C30.6565 36.3214 30.6459 36.3689 30.6231 36.4107C30.6002 36.4526 30.5661 36.4873 30.5246 36.5109C30.4832 36.5344 30.4359 36.546 30.3882 36.5441C30.3405 36.5423 30.2942 36.5271 30.2546 36.5005C28.5592 35.3324 22.4527 30.4431 24.0151 21.6159C26.0605 10.0385 38.2144 2.94122 42.8523 0.624749C43.0342 0.532946 43.237 0.490523 43.4405 0.501774C43.6439 0.513024 43.8409 0.577524 44.0116 0.688824C44.1823 0.800125 44.3209 0.954324 44.4132 1.13597C44.5056 1.31761 44.5485 1.52033 44.5379 1.72383C44.395 4.95211 44.3111 11.6255 45.6074 17.0914C48.2048 28.0231 43.6359 34.2777 34.2714 36.7124C34.2371 36.7211 34.2015 36.7227 34.1665 36.7172C34.1315 36.7116 34.0981 36.6991 34.0681 36.6802C34.0381 36.6613 34.0121 36.6364 33.992 36.6072C33.972 36.5781 33.9581 36.5451 33.9511 36.5103C33.6653 35.0613 32.3888 27.9542 33.5372 22.1482C33.542 22.1339 33.5439 22.1189 33.543 22.1039C33.542 22.0889 33.5383 22.0742 33.5317 22.0607C33.525 22.0472 33.5158 22.0351 33.5045 22.0252C33.4932 22.0153 33.48 22.0077 33.4657 22.0028C33.4515 21.998 33.4365 21.996 33.4214 21.9969C33.4064 21.9979 33.3916 22.0018 33.3781 22.0084C33.3646 22.0151 33.3527 22.0243 33.3427 22.0356C33.3328 22.0469 33.3252 22.06 33.3204 22.0742C32.4184 23.8633 30.2596 28.9498 30.6539 36.2738Z" fill="#003569"/>
<path d="M21.5321 34.4107C21.5643 34.4198 21.5932 34.4379 21.6156 34.4628C21.6379 34.4876 21.6527 34.5183 21.6584 34.5513C21.6641 34.5843 21.6604 34.6182 21.6476 34.6492C21.6348 34.6801 21.6135 34.7067 21.5862 34.7261C20.4033 35.564 15.7014 38.4226 10.2502 35.2633C3.0889 31.1183 1.32939 21.3793 0.91538 17.7518C0.899272 17.6094 0.920561 17.4653 0.977229 17.3337C1.0339 17.2021 1.12384 17.0876 1.23834 17.0015C1.35284 16.9154 1.48798 16.8606 1.63013 16.8427C1.77228 16.8247 1.91656 16.8441 2.04888 16.8991C4.14849 17.7764 8.53987 19.4374 12.4631 19.9007C20.3145 20.8224 23.3506 25.3518 22.7 32.1139C22.6983 32.1387 22.6914 32.1628 22.6798 32.1847C22.6681 32.2066 22.6521 32.2259 22.6326 32.2412C22.6131 32.2565 22.5907 32.2676 22.5666 32.2737C22.5426 32.2798 22.5175 32.2808 22.493 32.2766C21.4629 32.1189 16.4605 31.2514 12.897 29.0927C12.8807 29.0796 12.8598 29.0735 12.839 29.0758C12.8182 29.0781 12.7992 29.0886 12.7861 29.1049C12.773 29.1213 12.7669 29.1422 12.7692 29.1629C12.7716 29.1837 12.782 29.2028 12.7984 29.2159C15.2165 31.667 18.224 33.4557 21.5321 34.4107Z" fill="#003569"/>
</g>
<defs>
<clipPath id="clip0_7_763">
<rect width="46" height="37" fill="white" transform="translate(0.910156 0.5)"/>
</clipPath>
</defs>
</svg>
