<svg width="37" height="48" viewBox="0 0 37 48" fill="none" xmlns="http://www.w3.org/2000/svg">
<g clip-path="url(#clip0_7_751)">
<path d="M32.8076 47.9999H4.26991C3.66083 48.0044 3.06053 47.8549 2.52474 47.5652C1.98895 47.2755 1.53495 46.855 1.20524 46.3429C0.875533 45.8307 0.680841 45.2435 0.638936 44.6359C0.597031 44.0282 0.709366 43.4198 0.965651 42.8672L10.036 23.251V3.78889H7.43649C7.21251 3.78889 6.99762 3.7003 6.83872 3.54244C6.67983 3.38458 6.58983 3.17026 6.58838 2.94628V0.842602C6.58983 0.61863 6.67983 0.404307 6.83872 0.246448C6.99762 0.0885889 7.21251 -4.72193e-06 7.43649 1.8876e-10H29.6908C29.9138 0.00144355 30.1271 0.0906939 30.2848 0.248398C30.4425 0.406101 30.5318 0.61958 30.5333 0.842602V2.94628C30.5318 3.16931 30.4425 3.38279 30.2848 3.54049C30.1271 3.69819 29.9138 3.78744 29.6908 3.78889H27.0419V23.251L36.1119 42.8672C36.3682 43.4198 36.4808 44.0282 36.4389 44.6359C36.397 45.2435 36.202 45.8307 35.8723 46.3429C35.5426 46.855 35.0889 47.2755 34.5531 47.5652C34.0173 47.8549 33.4167 48.0044 32.8076 47.9999Z" fill="#003569"/>
<path d="M23.8106 4.04785H13.2534V24.4461H23.8106V4.04785Z" fill="white"/>
<path d="M13.7593 36.4625L16.8818 39.7667C16.999 39.8848 17.1385 39.9785 17.2921 40.0424C17.4457 40.1064 17.6103 40.1393 17.7767 40.1393C17.9431 40.1393 18.1079 40.1064 18.2615 40.0424C18.4151 39.9785 18.5544 39.8848 18.6716 39.7667L25.1371 32.7452" stroke="white" stroke-width="3" stroke-miterlimit="10" stroke-linecap="round"/>
</g>
<defs>
<clipPath id="clip0_7_751">
<rect width="36" height="48" fill="white" transform="translate(0.630371)"/>
</clipPath>
</defs>
</svg>
