<svg width="61" height="54" viewBox="0 0 61 54" fill="none" xmlns="http://www.w3.org/2000/svg">
<g clip-path="url(#clip0_7_805)">
<path d="M30.6878 3.60722C36.6129 3.61459 42.3204 5.84091 46.6855 9.84746C51.0506 13.854 53.7568 19.3502 54.2708 25.253H56.8538C56.3497 18.7091 53.4128 12.5913 48.6219 8.10531C43.8309 3.61933 37.5335 1.09051 30.9706 1.01726C24.4077 0.944009 18.0554 3.33161 13.1655 7.70953C8.2756 12.0875 5.20285 18.1381 4.5528 24.6692H7.13582C7.78609 18.8773 10.5471 13.5279 14.8916 9.64276C19.2361 5.7576 24.8595 3.60893 30.6878 3.60722ZM30.6878 50.9489C24.688 50.9435 18.9134 48.6629 14.529 44.5671C10.1446 40.4713 7.47673 34.8652 7.06349 28.8796H4.48047C4.89294 35.4964 7.79346 41.7121 12.5996 46.2786C17.4057 50.8452 23.7616 53.4244 30.3908 53.4983C37.02 53.5723 43.4318 51.1353 48.3385 46.6771C53.2452 42.2188 56.2836 36.0692 56.8435 29.4633H54.2605C53.709 35.3355 50.9879 40.7911 46.6288 44.7643C42.2697 48.7374 36.5859 50.9426 30.6878 50.9489Z" fill="#003569"/>
<path d="M50.2595 33.7924C50.0557 33.7891 49.8557 33.7372 49.676 33.6411C49.4963 33.5449 49.3421 33.4073 49.2263 33.2396C49.0304 32.9587 48.9541 32.6115 49.0142 32.2744C49.0743 31.9373 49.2658 31.6378 49.5466 31.4418L54.6816 27.8618C54.8205 27.7607 54.9782 27.6882 55.1454 27.6488C55.3126 27.6093 55.4861 27.6036 55.6555 27.632C55.825 27.6604 55.9871 27.7223 56.1323 27.8141C56.2775 27.906 56.4029 28.0259 56.5012 28.1668C56.5995 28.3077 56.6687 28.4668 56.7048 28.6348C56.7408 28.8028 56.7429 28.9764 56.7111 29.1453C56.6792 29.3141 56.614 29.4749 56.5192 29.6182C56.4244 29.7615 56.302 29.8844 56.1591 29.9798L51.0241 33.5598C50.7999 33.7156 50.5324 33.797 50.2595 33.7924Z" fill="#003569"/>
<path d="M59.0147 35.2699C58.8067 35.2699 58.6019 35.2196 58.4175 35.1234C58.2331 35.0271 58.0747 34.8879 57.9557 34.7172L54.386 29.6131C54.2886 29.4741 54.2196 29.3171 54.1829 29.1514C54.1462 28.9857 54.1425 28.8143 54.172 28.6472C54.2015 28.48 54.2636 28.3203 54.3548 28.1771C54.4461 28.0339 54.5646 27.9101 54.7037 27.8127C54.8427 27.7154 54.9996 27.6464 55.1654 27.6097C55.3311 27.5729 55.5025 27.5693 55.6696 27.5988C55.8368 27.6283 55.9966 27.6905 56.1397 27.7817C56.2829 27.8729 56.4067 27.9915 56.5041 28.1305L60.0738 33.2397C60.2076 33.4315 60.2868 33.656 60.303 33.8894C60.3192 34.1227 60.2717 34.3561 60.1656 34.5645C60.0595 34.773 59.8988 34.9487 59.7007 35.0729C59.5025 35.1972 59.2744 35.2652 59.0406 35.2699H59.0147Z" fill="#003569"/>
<path d="M6.02886 26.1569C5.75096 26.1567 5.48055 26.0669 5.25777 25.9008C5.03499 25.7346 4.87172 25.5011 4.79224 25.2348C4.71276 24.9685 4.72128 24.6837 4.81655 24.4226C4.91183 24.1615 5.08879 23.9382 5.32111 23.7857L10.5595 20.3555C10.7016 20.2625 10.8606 20.1984 11.0276 20.1669C11.1944 20.1354 11.3659 20.1372 11.5321 20.172C11.6983 20.2067 11.8561 20.274 11.9963 20.3697C12.1366 20.4655 12.2566 20.5878 12.3495 20.7299C12.4425 20.8721 12.5065 21.0311 12.538 21.198C12.5695 21.3649 12.5678 21.5364 12.533 21.7026C12.4982 21.8688 12.4311 22.0265 12.3353 22.1667C12.2396 22.307 12.1171 22.4271 11.975 22.52L6.73143 25.945C6.52356 26.084 6.27892 26.1579 6.02886 26.1569Z" fill="#003569"/>
<path d="M5.95257 26.1569C5.73821 26.1573 5.52719 26.104 5.33862 26.002C5.15006 25.9001 4.98996 25.7526 4.87288 25.5731L1.45296 20.3658C1.35968 20.224 1.29522 20.0652 1.2633 19.8985C1.23138 19.7318 1.2326 19.5605 1.2669 19.3943C1.3012 19.2281 1.36791 19.0702 1.46321 18.9298C1.55851 18.7893 1.68053 18.669 1.82232 18.5757C1.96411 18.4824 2.12288 18.418 2.28958 18.386C2.45627 18.3541 2.62763 18.3554 2.79385 18.3897C2.96007 18.424 3.11789 18.4906 3.25834 18.5859C3.39878 18.6812 3.51908 18.8034 3.61237 18.9451L7.03228 24.1576C7.15987 24.3524 7.23244 24.578 7.24231 24.8107C7.25218 25.0433 7.19898 25.2743 7.08834 25.4791C6.97771 25.684 6.81373 25.8551 6.6138 25.9744C6.41387 26.0937 6.1854 26.1568 5.95257 26.1569Z" fill="#003569"/>
<path d="M17.5703 19.3791L20.3599 17.9998L30.1754 13.149C30.3239 13.0753 30.4874 13.0369 30.6532 13.0369C30.819 13.0369 30.9826 13.0753 31.1311 13.149C32.5776 13.8516 34.1894 14.6006 35.6462 15.3084L34.7008 15.825L22.8964 21.864C22.8281 21.9061 22.7494 21.9284 22.6691 21.9284C22.5889 21.9284 22.5102 21.9061 22.4418 21.864C20.892 21.0891 19.3422 20.3142 17.7924 19.5652C17.7039 19.5228 17.6275 19.4588 17.5703 19.3791Z" fill="#003569"/>
<path d="M29.711 28.0272C29.711 32.5045 29.711 36.9817 29.711 41.4589C29.711 41.4848 29.711 41.5107 29.711 41.5468C29.6077 41.5727 29.5405 41.5003 29.463 41.4589L17.1833 35.0428C16.9613 34.9462 16.774 34.7841 16.6466 34.5782C16.5192 34.3724 16.4577 34.1325 16.4704 33.8907C16.4704 29.7786 16.4704 25.6698 16.4704 21.5645V21.2701L19.0534 22.5513L21.5435 23.7704C21.6287 23.7983 21.7019 23.8545 21.7507 23.9297C21.7996 24.0049 21.8213 24.0945 21.8121 24.1837C21.8121 25.6251 21.8121 27.0664 21.8121 28.5078C21.8015 28.7273 21.8594 28.9447 21.9779 29.1298C22.0964 29.3149 22.2696 29.4587 22.4734 29.541C22.6561 29.63 22.8618 29.6602 23.0625 29.6279C23.2631 29.5955 23.4489 29.502 23.5944 29.3601C23.7135 29.256 23.8071 29.126 23.868 28.98C23.9289 28.834 23.9555 28.676 23.9457 28.5181C23.9457 27.3558 23.9457 26.1934 23.9457 25.0259C24.0748 25.0259 24.1627 25.0878 24.2557 25.1343L29.4837 27.7173C29.5505 27.7367 29.6089 27.7776 29.65 27.8336C29.6912 27.8897 29.7126 27.9577 29.711 28.0272Z" fill="#003569"/>
<path d="M42.8224 19.9686L31.018 25.8216C30.9395 25.867 30.8504 25.8909 30.7597 25.8909C30.669 25.8909 30.5799 25.867 30.5014 25.8216C28.8173 24.9796 27.1331 24.1531 25.449 23.3162L25.0977 23.1302L26.3634 22.4844C30.1863 20.5282 34.0109 18.5703 37.8372 16.6107C37.9099 16.5675 37.9928 16.5446 38.0774 16.5446C38.1619 16.5446 38.2449 16.5675 38.3176 16.6107C40.0999 17.4992 41.8822 18.3722 43.6696 19.2505L43.9486 19.3951L42.8224 19.9686Z" fill="#003569"/>
<path d="M45.0407 21.3112V33.1931C45.0436 33.2067 45.0436 33.2208 45.0407 33.2344V34.3761C45.0412 34.4644 45.0173 34.5512 44.9718 34.6268C44.9262 34.7025 44.8607 34.7641 44.7824 34.8049L44.1521 35.1355C40.1226 37.2329 36.0948 39.3355 32.0688 41.4432H32.0326C32.0103 41.4538 31.9856 41.4586 31.9609 41.457C31.9363 41.4553 31.9124 41.4474 31.8917 41.4339C31.871 41.4204 31.8541 41.4019 31.8425 41.38C31.831 41.3582 31.8253 41.3336 31.8259 41.3089C31.8259 36.8868 31.8259 32.4612 31.8259 28.0322C31.8151 27.9615 31.8287 27.8893 31.8643 27.8274C31.9 27.7654 31.9557 27.7174 32.0222 27.6913C36.2859 25.5939 40.5462 23.4913 44.803 21.3836L44.9063 21.3474C44.9425 21.306 44.9942 21.306 45.0407 21.3112Z" fill="#003569"/>
</g>
<defs>
<clipPath id="clip0_7_805">
<rect width="60" height="53" fill="white" transform="translate(0.910156 0.5)"/>
</clipPath>
</defs>
</svg>
