<svg width="47" height="46" viewBox="0 0 47 46" fill="none" xmlns="http://www.w3.org/2000/svg">
<g clip-path="url(#clip0_7_774)">
<path d="M38.4621 6.11545L28.0259 16.573V0.607239C31.9304 1.48851 35.5315 3.38914 38.4621 6.11545Z" fill="#003569"/>
<path d="M45.0725 17.336H30.563L40.107 7.79205C42.5036 10.5292 44.2066 13.8026 45.0725 17.336Z" fill="#003569"/>
<path d="M28.0259 29.9754L37.9622 39.9117C35.1245 42.4041 31.7089 44.1479 28.0259 44.9846V29.9754Z" fill="#003569"/>
<path d="M29.5044 28.1539H45.0886C44.1651 31.9442 42.2811 35.4328 39.618 38.2836L29.5044 28.1539Z" fill="#003569"/>
<path d="M15.3829 17.336H0.873535C1.7441 13.801 3.45275 10.5275 5.85512 7.79205L15.3829 17.336Z" fill="#003569"/>
<path d="M17.468 16.1162L7.46729 6.11546C10.2865 3.48729 13.728 1.61947 17.468 0.687805V16.1162Z" fill="#003569"/>
<path d="M16.4264 28.1539L6.30215 38.2836C3.64291 35.4316 1.76261 31.9431 0.842285 28.1539H16.4264Z" fill="#003569"/>
<path d="M17.4663 30.4109V44.8827C13.9472 44.0099 10.6889 42.3052 7.96533 39.9119L17.4663 30.4109Z" fill="#003569"/>
<path d="M45.7281 22.7852C45.7272 23.7987 45.6607 24.8111 45.5292 25.816H25.689V45.3877C23.7331 45.6209 21.7553 45.601 19.8045 45.3286V28.1322H19.7347L19.8153 28.0516V25.7946H0.38881C0.257333 24.7896 0.19092 23.7772 0.18998 22.7637C0.188041 21.7228 0.259886 20.683 0.404947 19.6522H19.7938V0.220348C21.7446 -0.0521272 23.7224 -0.0719872 25.6782 0.161243V19.6522H45.5292C45.6699 20.6905 45.7364 21.7375 45.7281 22.7852Z" fill="#003569"/>
<path d="M19.7231 28.1538L19.8038 28.0732V28.1538H19.7231Z" fill="#003569"/>
</g>
<defs>
<clipPath id="clip0_7_774">
<rect width="46" height="46" fill="white" transform="translate(0.189941)"/>
</clipPath>
</defs>
</svg>
